<mxfile host="app.diagrams.net" modified="2022-01-12T14:39:44.080Z" agent="5.0 (Windows NT 10.0; Win64; x64) AppleWebKit/537.36 (KHTML, like Gecko) Chrome/97.0.4692.71 Safari/537.36" etag="ro3HFXaILVg1NQUFUmY-" version="16.2.4" type="github">
  <diagram id="jTAJRtiviT8hBtKBQoAz" name="Page-1">
    <mxGraphModel dx="1422" dy="794" grid="1" gridSize="10" guides="1" tooltips="1" connect="1" arrows="1" fold="1" page="1" pageScale="1" pageWidth="850" pageHeight="1100" math="0" shadow="0">
      <root>
        <mxCell id="0" />
        <mxCell id="1" parent="0" />
        <mxCell id="WUm8NI64qV-XtA0xntOc-8" value="" style="rounded=1;whiteSpace=wrap;html=1;fillColor=#ffe6cc;strokeColor=#d79b00;fontStyle=1" parent="1" vertex="1">
          <mxGeometry x="190" y="300" width="550" height="500" as="geometry" />
        </mxCell>
        <mxCell id="WUm8NI64qV-XtA0xntOc-9" value="Mobile&lt;br&gt;" style="sketch=0;points=[[0,0,0],[0.25,0,0],[0.5,0,0],[0.75,0,0],[1,0,0],[0,1,0],[0.25,1,0],[0.5,1,0],[0.75,1,0],[1,1,0],[0,0.25,0],[0,0.5,0],[0,0.75,0],[1,0.25,0],[1,0.5,0],[1,0.75,0]];outlineConnect=0;fontColor=#232F3E;gradientColor=#F54749;gradientDirection=north;fillColor=#C7131F;strokeColor=#ffffff;dashed=0;verticalLabelPosition=bottom;verticalAlign=top;align=center;html=1;fontSize=12;fontStyle=1;aspect=fixed;shape=mxgraph.aws4.resourceIcon;resIcon=mxgraph.aws4.mobile;" parent="1" vertex="1">
          <mxGeometry x="188" y="200" width="50" height="50" as="geometry" />
        </mxCell>
        <mxCell id="WUm8NI64qV-XtA0xntOc-21" style="edgeStyle=orthogonalEdgeStyle;rounded=0;orthogonalLoop=1;jettySize=auto;html=1;" parent="1" source="WUm8NI64qV-XtA0xntOc-10" target="WUm8NI64qV-XtA0xntOc-18" edge="1">
          <mxGeometry relative="1" as="geometry">
            <Array as="points">
              <mxPoint x="120" y="140" />
              <mxPoint x="120" y="40" />
            </Array>
          </mxGeometry>
        </mxCell>
        <mxCell id="WUm8NI64qV-XtA0xntOc-22" style="edgeStyle=orthogonalEdgeStyle;rounded=0;orthogonalLoop=1;jettySize=auto;html=1;entryX=1.001;entryY=0.75;entryDx=0;entryDy=0;entryPerimeter=0;" parent="1" source="WUm8NI64qV-XtA0xntOc-10" target="WUm8NI64qV-XtA0xntOc-18" edge="1">
          <mxGeometry relative="1" as="geometry">
            <mxPoint x="90" y="50" as="targetPoint" />
            <Array as="points">
              <mxPoint x="110" y="130" />
              <mxPoint x="110" y="50" />
            </Array>
          </mxGeometry>
        </mxCell>
        <mxCell id="WUm8NI64qV-XtA0xntOc-25" style="edgeStyle=orthogonalEdgeStyle;rounded=0;orthogonalLoop=1;jettySize=auto;html=1;entryX=0;entryY=0.5;entryDx=0;entryDy=0;entryPerimeter=0;" parent="1" target="WUm8NI64qV-XtA0xntOc-9" edge="1">
          <mxGeometry relative="1" as="geometry">
            <Array as="points">
              <mxPoint x="128" y="225" />
            </Array>
            <mxPoint x="158" y="135" as="sourcePoint" />
          </mxGeometry>
        </mxCell>
        <mxCell id="WUm8NI64qV-XtA0xntOc-10" value="" style="sketch=0;points=[[0,0,0],[0.25,0,0],[0.5,0,0],[0.75,0,0],[1,0,0],[0,1,0],[0.25,1,0],[0.5,1,0],[0.75,1,0],[1,1,0],[0,0.25,0],[0,0.5,0],[0,0.75,0],[1,0.25,0],[1,0.5,0],[1,0.75,0]];outlineConnect=0;fontColor=#232F3E;gradientColor=#4D72F3;gradientDirection=north;fillColor=#3334B9;strokeColor=#ffffff;dashed=0;verticalLabelPosition=bottom;verticalAlign=top;align=center;html=1;fontSize=12;fontStyle=0;aspect=fixed;shape=mxgraph.aws4.resourceIcon;resIcon=mxgraph.aws4.managed_services;" parent="1" vertex="1">
          <mxGeometry x="90" y="110" width="50" height="50" as="geometry" />
        </mxCell>
        <mxCell id="WUm8NI64qV-XtA0xntOc-13" value="" style="rounded=1;whiteSpace=wrap;html=1;fillColor=#f5f5f5;fontColor=#333333;strokeColor=#666666;fontStyle=1" parent="1" vertex="1">
          <mxGeometry x="288" y="390" width="442" height="390" as="geometry" />
        </mxCell>
        <mxCell id="WUm8NI64qV-XtA0xntOc-18" value="users" style="sketch=0;outlineConnect=0;gradientColor=none;fontColor=#545B64;strokeColor=none;fillColor=#879196;dashed=0;verticalLabelPosition=bottom;verticalAlign=top;align=center;html=1;fontSize=12;fontStyle=0;aspect=fixed;shape=mxgraph.aws4.illustration_users;pointerEvents=1" parent="1" vertex="1">
          <mxGeometry x="40" y="20" width="40" height="40" as="geometry" />
        </mxCell>
        <mxCell id="WUm8NI64qV-XtA0xntOc-29" style="edgeStyle=orthogonalEdgeStyle;rounded=0;orthogonalLoop=1;jettySize=auto;html=1;entryX=0.5;entryY=0;entryDx=0;entryDy=0;entryPerimeter=0;fontStyle=1" parent="1" source="WUm8NI64qV-XtA0xntOc-26" target="WUm8NI64qV-XtA0xntOc-9" edge="1">
          <mxGeometry relative="1" as="geometry" />
        </mxCell>
        <mxCell id="WUm8NI64qV-XtA0xntOc-26" value="ZENVIA" style="rounded=1;whiteSpace=wrap;html=1;fillColor=#fad9d5;strokeColor=#ae4132;fontStyle=1" parent="1" vertex="1">
          <mxGeometry x="341.03" y="230" width="110" height="60" as="geometry" />
        </mxCell>
        <mxCell id="WUm8NI64qV-XtA0xntOc-31" style="edgeStyle=orthogonalEdgeStyle;rounded=0;orthogonalLoop=1;jettySize=auto;html=1;exitX=0.5;exitY=0;exitDx=0;exitDy=0;entryX=0.5;entryY=1;entryDx=0;entryDy=0;fontStyle=1" parent="1" target="WUm8NI64qV-XtA0xntOc-26" edge="1">
          <mxGeometry relative="1" as="geometry">
            <mxPoint x="393" y="310" as="sourcePoint" />
          </mxGeometry>
        </mxCell>
        <mxCell id="WUm8NI64qV-XtA0xntOc-32" value="" style="rounded=1;whiteSpace=wrap;html=1;fillColor=#bac8d3;strokeColor=#23445d;fontStyle=1" parent="1" vertex="1">
          <mxGeometry x="338" y="410" width="220" height="180" as="geometry" />
        </mxCell>
        <mxCell id="WUm8NI64qV-XtA0xntOc-33" value="" style="rounded=1;whiteSpace=wrap;html=1;fillColor=#bac8d3;strokeColor=#23445d;fontStyle=1" parent="1" vertex="1">
          <mxGeometry x="620" y="410" width="90" height="180" as="geometry" />
        </mxCell>
        <mxCell id="WUm8NI64qV-XtA0xntOc-34" value="" style="rounded=1;whiteSpace=wrap;html=1;fillColor=#bac8d3;strokeColor=#23445d;fontStyle=1" parent="1" vertex="1">
          <mxGeometry x="363" y="610" width="110" height="160" as="geometry" />
        </mxCell>
        <mxCell id="WUm8NI64qV-XtA0xntOc-37" value="E-mail Service" style="sketch=0;points=[[0,0,0],[0.25,0,0],[0.5,0,0],[0.75,0,0],[1,0,0],[0,1,0],[0.25,1,0],[0.5,1,0],[0.75,1,0],[1,1,0],[0,0.25,0],[0,0.5,0],[0,0.75,0],[1,0.25,0],[1,0.5,0],[1,0.75,0]];outlineConnect=0;fontColor=#232F3E;gradientColor=#FF5252;gradientDirection=north;fillColor=#C7131F;strokeColor=#ffffff;dashed=0;verticalLabelPosition=bottom;verticalAlign=top;align=center;html=1;fontSize=12;fontStyle=1;aspect=fixed;shape=mxgraph.aws4.resourceIcon;resIcon=mxgraph.aws4.simple_email_service;" parent="1" vertex="1">
          <mxGeometry x="478" y="420" width="60" height="60" as="geometry" />
        </mxCell>
        <mxCell id="WUm8NI64qV-XtA0xntOc-52" style="edgeStyle=orthogonalEdgeStyle;rounded=0;orthogonalLoop=1;jettySize=auto;html=1;entryX=1;entryY=0.5;entryDx=0;entryDy=0;entryPerimeter=0;" parent="1" source="WUm8NI64qV-XtA0xntOc-39" target="WUm8NI64qV-XtA0xntOc-10" edge="1">
          <mxGeometry relative="1" as="geometry">
            <Array as="points">
              <mxPoint x="533" y="135" />
            </Array>
            <mxPoint x="208" y="135" as="targetPoint" />
          </mxGeometry>
        </mxCell>
        <mxCell id="WUm8NI64qV-XtA0xntOc-39" value="SES Classic" style="sketch=0;outlineConnect=0;fontColor=#232F3E;gradientColor=none;fillColor=#BF0816;strokeColor=none;dashed=0;verticalLabelPosition=bottom;verticalAlign=top;align=center;html=1;fontSize=12;fontStyle=1;aspect=fixed;shape=mxgraph.aws4.email;" parent="1" vertex="1">
          <mxGeometry x="478" y="300" width="70" height="61.91" as="geometry" />
        </mxCell>
        <mxCell id="a-TNvxgOsw7faXksnlnq-2" style="edgeStyle=orthogonalEdgeStyle;rounded=0;orthogonalLoop=1;jettySize=auto;html=1;entryX=0;entryY=0.5;entryDx=0;entryDy=0;entryPerimeter=0;fontStyle=1" edge="1" parent="1" source="WUm8NI64qV-XtA0xntOc-41" target="WUm8NI64qV-XtA0xntOc-51">
          <mxGeometry relative="1" as="geometry" />
        </mxCell>
        <mxCell id="WUm8NI64qV-XtA0xntOc-41" value="API Gateway" style="sketch=0;points=[[0,0,0],[0.25,0,0],[0.5,0,0],[0.75,0,0],[1,0,0],[0,1,0],[0.25,1,0],[0.5,1,0],[0.75,1,0],[1,1,0],[0,0.25,0],[0,0.5,0],[0,0.75,0],[1,0.25,0],[1,0.5,0],[1,0.75,0]];outlineConnect=0;fontColor=#232F3E;gradientColor=#945DF2;gradientDirection=north;fillColor=#5A30B5;strokeColor=#ffffff;dashed=0;verticalLabelPosition=bottom;verticalAlign=top;align=center;html=1;fontSize=12;fontStyle=1;aspect=fixed;shape=mxgraph.aws4.resourceIcon;resIcon=mxgraph.aws4.api_gateway;rotation=0;direction=south;" parent="1" vertex="1">
          <mxGeometry x="90" y="499" width="78" height="78" as="geometry" />
        </mxCell>
        <mxCell id="WUm8NI64qV-XtA0xntOc-45" value="Amazon Web Services" style="sketch=0;points=[[0,0,0],[0.25,0,0],[0.5,0,0],[0.75,0,0],[1,0,0],[0,1,0],[0.25,1,0],[0.5,1,0],[0.75,1,0],[1,1,0],[0,0.25,0],[0,0.5,0],[0,0.75,0],[1,0.25,0],[1,0.5,0],[1,0.75,0]];outlineConnect=0;fontColor=#232F3E;gradientColor=#945DF2;gradientDirection=north;fillColor=#5A30B5;strokeColor=#ffffff;dashed=0;verticalLabelPosition=bottom;verticalAlign=top;align=center;html=1;fontSize=12;fontStyle=1;aspect=fixed;shape=mxgraph.aws4.resourceIcon;resIcon=mxgraph.aws4.serverless;" parent="1" vertex="1">
          <mxGeometry x="640" y="311.97" width="50" height="50" as="geometry" />
        </mxCell>
        <mxCell id="WUm8NI64qV-XtA0xntOc-48" value="Sandbox SMS" style="sketch=0;points=[[0,0,0],[0.25,0,0],[0.5,0,0],[0.75,0,0],[1,0,0],[0,1,0],[0.25,1,0],[0.5,1,0],[0.75,1,0],[1,1,0],[0,0.25,0],[0,0.5,0],[0,0.75,0],[1,0.25,0],[1,0.5,0],[1,0.75,0]];outlineConnect=0;fontColor=#232F3E;gradientColor=#FF5252;gradientDirection=north;fillColor=#C7131F;strokeColor=#ffffff;dashed=0;verticalLabelPosition=bottom;verticalAlign=top;align=center;html=1;fontSize=12;fontStyle=1;aspect=fixed;shape=mxgraph.aws4.resourceIcon;resIcon=mxgraph.aws4.workmail;" parent="1" vertex="1">
          <mxGeometry x="369.06" y="308.03000000000003" width="53.94" height="53.94" as="geometry" />
        </mxCell>
        <mxCell id="a-TNvxgOsw7faXksnlnq-3" style="edgeStyle=orthogonalEdgeStyle;rounded=0;orthogonalLoop=1;jettySize=auto;html=1;fontStyle=1" edge="1" parent="1" source="WUm8NI64qV-XtA0xntOc-50" target="a-TNvxgOsw7faXksnlnq-1">
          <mxGeometry relative="1" as="geometry" />
        </mxCell>
        <mxCell id="WUm8NI64qV-XtA0xntOc-50" value="Apache Kafka" style="sketch=0;points=[[0,0,0],[0.25,0,0],[0.5,0,0],[0.75,0,0],[1,0,0],[0,1,0],[0.25,1,0],[0.5,1,0],[0.75,1,0],[1,1,0],[0,0.25,0],[0,0.5,0],[0,0.75,0],[1,0.25,0],[1,0.5,0],[1,0.75,0]];outlineConnect=0;fontColor=#232F3E;gradientColor=#4D72F3;gradientDirection=north;fillColor=#3334B9;strokeColor=#ffffff;dashed=0;verticalLabelPosition=bottom;verticalAlign=top;align=center;html=1;fontSize=12;fontStyle=1;aspect=fixed;shape=mxgraph.aws4.resourceIcon;resIcon=mxgraph.aws4.customer_engagement;rotation=0;" parent="1" vertex="1">
          <mxGeometry x="210" y="415" width="70" height="70" as="geometry" />
        </mxCell>
        <mxCell id="WUm8NI64qV-XtA0xntOc-51" value="Mobile Service" style="sketch=0;points=[[0,0,0],[0.25,0,0],[0.5,0,0],[0.75,0,0],[1,0,0],[0,1,0],[0.25,1,0],[0.5,1,0],[0.75,1,0],[1,1,0],[0,0.25,0],[0,0.5,0],[0,0.75,0],[1,0.25,0],[1,0.5,0],[1,0.75,0]];points=[[0,0,0],[0.25,0,0],[0.5,0,0],[0.75,0,0],[1,0,0],[0,1,0],[0.25,1,0],[0.5,1,0],[0.75,1,0],[1,1,0],[0,0.25,0],[0,0.5,0],[0,0.75,0],[1,0.25,0],[1,0.5,0],[1,0.75,0]];outlineConnect=0;fontColor=#232F3E;gradientColor=#F34482;gradientDirection=north;fillColor=#BC1356;strokeColor=#ffffff;dashed=0;verticalLabelPosition=bottom;verticalAlign=top;align=center;html=1;fontSize=12;fontStyle=1;aspect=fixed;shape=mxgraph.aws4.resourceIcon;resIcon=mxgraph.aws4.managed_services;" parent="1" vertex="1">
          <mxGeometry x="363" y="508" width="60" height="60" as="geometry" />
        </mxCell>
        <mxCell id="WUm8NI64qV-XtA0xntOc-57" value="" style="curved=1;endArrow=classic;html=1;rounded=0;exitX=1;exitY=0.5;exitDx=0;exitDy=0;exitPerimeter=0;fontStyle=1" parent="1" source="WUm8NI64qV-XtA0xntOc-37" target="WUm8NI64qV-XtA0xntOc-39" edge="1">
          <mxGeometry width="50" height="50" relative="1" as="geometry">
            <mxPoint x="468" y="440" as="sourcePoint" />
            <mxPoint x="518" y="390" as="targetPoint" />
            <Array as="points">
              <mxPoint x="598" y="430" />
              <mxPoint x="598" y="400" />
            </Array>
          </mxGeometry>
        </mxCell>
        <mxCell id="a-TNvxgOsw7faXksnlnq-1" value="SMS Service" style="sketch=0;points=[[0,0,0],[0.25,0,0],[0.5,0,0],[0.75,0,0],[1,0,0],[0,1,0],[0.25,1,0],[0.5,1,0],[0.75,1,0],[1,1,0],[0,0.25,0],[0,0.5,0],[0,0.75,0],[1,0.25,0],[1,0.5,0],[1,0.75,0]];outlineConnect=0;fontColor=#232F3E;gradientColor=#FF5252;gradientDirection=north;fillColor=#C7131F;strokeColor=#ffffff;dashed=0;verticalLabelPosition=bottom;verticalAlign=top;align=center;html=1;fontSize=12;fontStyle=1;aspect=fixed;shape=mxgraph.aws4.resourceIcon;resIcon=mxgraph.aws4.alexa_for_business;" vertex="1" parent="1">
          <mxGeometry x="366.03" y="420" width="60" height="60" as="geometry" />
        </mxCell>
        <mxCell id="a-TNvxgOsw7faXksnlnq-24" style="edgeStyle=orthogonalEdgeStyle;rounded=0;orthogonalLoop=1;jettySize=auto;html=1;exitX=0;exitY=0.5;exitDx=0;exitDy=0;exitPerimeter=0;entryX=1;entryY=0.75;entryDx=0;entryDy=0;entryPerimeter=0;" edge="1" parent="1" source="a-TNvxgOsw7faXksnlnq-5" target="a-TNvxgOsw7faXksnlnq-12">
          <mxGeometry relative="1" as="geometry" />
        </mxCell>
        <mxCell id="a-TNvxgOsw7faXksnlnq-5" value="Report Service" style="sketch=0;points=[[0,0,0],[0.25,0,0],[0.5,0,0],[0.75,0,0],[1,0,0],[0,1,0],[0.25,1,0],[0.5,1,0],[0.75,1,0],[1,1,0],[0,0.25,0],[0,0.5,0],[0,0.75,0],[1,0.25,0],[1,0.5,0],[1,0.75,0]];outlineConnect=0;fontColor=#232F3E;gradientColor=#4D72F3;gradientDirection=north;fillColor=#3334B9;strokeColor=#ffffff;dashed=0;verticalLabelPosition=bottom;verticalAlign=top;align=center;html=1;fontSize=12;fontStyle=1;aspect=fixed;shape=mxgraph.aws4.resourceIcon;resIcon=mxgraph.aws4.support;" vertex="1" parent="1">
          <mxGeometry x="394" y="700" width="48" height="48" as="geometry" />
        </mxCell>
        <mxCell id="a-TNvxgOsw7faXksnlnq-18" style="edgeStyle=orthogonalEdgeStyle;rounded=0;orthogonalLoop=1;jettySize=auto;html=1;exitX=0;exitY=0.75;exitDx=0;exitDy=0;exitPerimeter=0;entryX=1;entryY=0.25;entryDx=0;entryDy=0;entryPerimeter=0;fontStyle=1" edge="1" parent="1" source="a-TNvxgOsw7faXksnlnq-7" target="a-TNvxgOsw7faXksnlnq-12">
          <mxGeometry relative="1" as="geometry" />
        </mxCell>
        <mxCell id="a-TNvxgOsw7faXksnlnq-22" value="" style="edgeStyle=orthogonalEdgeStyle;rounded=0;orthogonalLoop=1;jettySize=auto;html=1;fontStyle=1" edge="1" parent="1" source="a-TNvxgOsw7faXksnlnq-7" target="a-TNvxgOsw7faXksnlnq-5">
          <mxGeometry relative="1" as="geometry" />
        </mxCell>
        <mxCell id="a-TNvxgOsw7faXksnlnq-7" value="Account Service" style="sketch=0;points=[[0,0,0],[0.25,0,0],[0.5,0,0],[0.75,0,0],[1,0,0],[0,1,0],[0.25,1,0],[0.5,1,0],[0.75,1,0],[1,1,0],[0,0.25,0],[0,0.5,0],[0,0.75,0],[1,0.25,0],[1,0.5,0],[1,0.75,0]];outlineConnect=0;fontColor=#232F3E;gradientColor=#60A337;gradientDirection=north;fillColor=#277116;strokeColor=#ffffff;dashed=0;verticalLabelPosition=bottom;verticalAlign=top;align=center;html=1;fontSize=12;fontStyle=1;aspect=fixed;shape=mxgraph.aws4.resourceIcon;resIcon=mxgraph.aws4.internet_of_things;" vertex="1" parent="1">
          <mxGeometry x="394" y="620" width="50" height="50" as="geometry" />
        </mxCell>
        <mxCell id="a-TNvxgOsw7faXksnlnq-8" value="" style="curved=1;endArrow=classic;html=1;rounded=0;entryX=0;entryY=0.25;entryDx=0;entryDy=0;entryPerimeter=0;fontStyle=1" edge="1" parent="1" source="WUm8NI64qV-XtA0xntOc-51" target="a-TNvxgOsw7faXksnlnq-5">
          <mxGeometry width="50" height="50" relative="1" as="geometry">
            <mxPoint x="330" y="690" as="sourcePoint" />
            <mxPoint x="380" y="640" as="targetPoint" />
            <Array as="points">
              <mxPoint x="330" y="590" />
              <mxPoint x="330" y="640" />
            </Array>
          </mxGeometry>
        </mxCell>
        <mxCell id="a-TNvxgOsw7faXksnlnq-19" style="edgeStyle=orthogonalEdgeStyle;rounded=0;orthogonalLoop=1;jettySize=auto;html=1;exitX=1;exitY=0.25;exitDx=0;exitDy=0;exitPerimeter=0;entryX=0;entryY=0.75;entryDx=0;entryDy=0;entryPerimeter=0;fontStyle=1" edge="1" parent="1" source="a-TNvxgOsw7faXksnlnq-12" target="a-TNvxgOsw7faXksnlnq-7">
          <mxGeometry relative="1" as="geometry" />
        </mxCell>
        <mxCell id="a-TNvxgOsw7faXksnlnq-23" style="edgeStyle=orthogonalEdgeStyle;rounded=0;orthogonalLoop=1;jettySize=auto;html=1;exitX=1;exitY=0.75;exitDx=0;exitDy=0;exitPerimeter=0;" edge="1" parent="1" source="a-TNvxgOsw7faXksnlnq-12" target="a-TNvxgOsw7faXksnlnq-5">
          <mxGeometry relative="1" as="geometry" />
        </mxCell>
        <mxCell id="a-TNvxgOsw7faXksnlnq-12" value="Conta Corrente" style="sketch=0;points=[[0,0,0],[0.25,0,0],[0.5,0,0],[0.75,0,0],[1,0,0],[0,1,0],[0.25,1,0],[0.5,1,0],[0.75,1,0],[1,1,0],[0,0.25,0],[0,0.5,0],[0,0.75,0],[1,0.25,0],[1,0.5,0],[1,0.75,0]];outlineConnect=0;fontColor=#232F3E;gradientColor=#945DF2;gradientDirection=north;fillColor=#5A30B5;strokeColor=#ffffff;dashed=0;verticalLabelPosition=bottom;verticalAlign=top;align=center;html=1;fontSize=12;fontStyle=1;aspect=fixed;shape=mxgraph.aws4.resourceIcon;resIcon=mxgraph.aws4.site_to_site_vpn;" vertex="1" parent="1">
          <mxGeometry x="80" y="640" width="90" height="90" as="geometry" />
        </mxCell>
        <mxCell id="a-TNvxgOsw7faXksnlnq-20" value="&lt;span&gt;Efetua &lt;br&gt;Débito/ Estorno&lt;/span&gt;" style="text;html=1;align=center;verticalAlign=middle;resizable=0;points=[];autosize=1;strokeColor=none;fillColor=none;fontStyle=1" vertex="1" parent="1">
          <mxGeometry x="185" y="630" width="100" height="30" as="geometry" />
        </mxCell>
        <mxCell id="a-TNvxgOsw7faXksnlnq-25" value="Efetua Extrato" style="text;html=1;align=center;verticalAlign=middle;resizable=0;points=[];autosize=1;strokeColor=none;fillColor=none;fontStyle=1" vertex="1" parent="1">
          <mxGeometry x="185" y="710" width="100" height="20" as="geometry" />
        </mxCell>
      </root>
    </mxGraphModel>
  </diagram>
</mxfile>
